<?xml version="1.0" encoding="UTF-8"?>
<svg width="30px" height="30px" viewBox="0 0 30 30" version="1.1" xmlns="http://www.w3.org/2000/svg" xmlns:xlink="http://www.w3.org/1999/xlink">
    <title>Combined Shape</title>
    <g id="2021桃園兒童節" stroke="none" stroke-width="1" fill="none" fill-rule="evenodd">
        <g id="01_index" transform="translate(-1220.000000, -21.000000)" fill="#FFFFFF">
            <g id="icon_fb" transform="translate(1220.000000, 21.000000)">
                <path d="M15,0 C23.2842712,0 30,6.71572875 30,15 C30,23.2842712 23.2842712,30 15,30 C6.71572875,30 0,23.2842712 0,15 C0,6.71572875 6.71572875,0 15,0 Z M18.3585144,7.28571429 L16.5321875,7.28571429 L16.5321875,7.29694126 C13.6745796,7.40065712 13.0874633,9.05565571 13.036549,10.7940547 L13.0312083,10.7940547 L13.0312083,12.8043959 L11.5714286,12.8043959 L11.5714286,15.3089023 L13.0312083,15.3089023 L13.0312083,23.3242492 L15.9493437,23.3242492 L15.9493437,15.3089023 L18.1384793,15.3089023 L18.5714286,12.8043959 L15.9493437,12.8043959 L15.9493437,10.9895466 C15.9493437,10.4044965 16.3276403,9.79022061 16.8682928,9.79022061 L18.3585144,9.79022061 L18.3585144,7.28571429 Z" id="Combined-Shape"></path>
            </g>
        </g>
    </g>
</svg>