<?xml version="1.0" encoding="UTF-8"?>
<svg width="30px" height="30px" viewBox="0 0 30 30" version="1.1" xmlns="http://www.w3.org/2000/svg" xmlns:xlink="http://www.w3.org/1999/xlink">
    <title>Combined Shape</title>
    <g id="2021桃園兒童節" stroke="none" stroke-width="1" fill="none" fill-rule="evenodd">
        <g id="01_index" transform="translate(-1098.000000, -21.000000)" fill="#FFFFFF">
            <g id="icon_home" transform="translate(1098.000000, 21.000000)">
                <path d="M15,0 C23.2842712,0 30,6.71572875 30,15 C30,23.2842712 23.2842712,30 15,30 C6.71572875,30 0,23.2842712 0,15 C0,6.71572875 6.71572875,0 15,0 Z M15.9230052,6.12867924 C15.6402619,5.93800529 15.2547673,5.9590033 14.9943965,6.19320904 L14.9943965,6.19320904 L8.24439978,12.2648884 L8.16325363,12.3502662 C8.09019745,12.4404377 8.0414569,12.544003 8.01744346,12.6520748 L8.01744346,12.6520748 L8.00000486,12.6520165 L8.00000486,21.9870063 L8.00662262,22.1061536 C8.06778021,22.6487746 8.54426999,23 9.07850434,23 L9.07850434,23 L14.0000027,23 L14.0000027,18.1955791 L17.0000027,18.1955791 L17.0000027,23 L21.9214981,23 L22.0349628,22.9946823 C22.5591235,22.9453228 22.9999976,22.5561542 22.9999976,21.9870063 L22.9999976,21.9870063 L22.9999976,13.0215873 C23.0108709,12.8108757 22.9316417,12.5964407 22.7631314,12.440648 L22.7631314,12.440648 L16.0131347,6.20007481 Z M15.4930136,7.74615565 L21.499,13.299 L21.4999983,21.5217166 L18.5,21.521 L18.5000027,17.4564374 L18.493156,17.3561403 C18.4434932,16.9953647 18.1296957,16.7172957 17.7500001,16.7172957 L17.7500001,16.7172957 L13.2500023,16.7172957 L13.1482318,16.7240432 C12.7821564,16.7729866 12.5000027,17.0822388 12.5000027,17.4564374 L12.5000027,17.4564374 L12.5,21.521 L9.50000486,21.5217166 L9.5,13.136 L15.4930136,7.74615565 Z" id="Combined-Shape"></path>
            </g>
        </g>
    </g>
</svg>